<svg xmlns="http://www.w3.org/2000/svg" width="13" height="16" viewBox="0 0 13 16">
  <g id="Union_4" data-name="Union 4" fill="none">
    <path d="M4.432,12.138H0L2.216,8,0,3.862H4.432L6.5,0,8.568,3.862H13L10.785,8,13,12.138H8.568L6.5,16Z" stroke="none"/>
    <path d="M 6.500181198120117 13.88179016113281 L 7.969709873199463 11.13831043243408 L 11.33041191101074 11.13831043243408 L 9.650400161743164 8 L 11.33041191101074 4.861690044403076 L 7.969709873199463 4.861690044403076 L 6.500181198120117 2.118210077285767 L 5.03125 4.861690044403076 L 1.669895052909851 4.861690044403076 L 3.350549936294556 8 L 1.669895052909851 11.13831043243408 L 5.03125 11.13831043243408 L 6.500181198120117 13.88179016113281 M 6.5 16 L 4.432360172271729 12.13831043243408 L -8.881784197001252e-16 12.13831043243408 L 2.216180086135864 8 L -8.881784197001252e-16 3.861690044403076 L 4.432360172271729 3.861690044403076 L 6.5 0 L 8.568490028381348 3.861690044403076 L 13 3.861690044403076 L 10.78466987609863 8 L 13 12.13831043243408 L 8.568490028381348 12.13831043243408 L 6.5 16 Z" stroke="none" fill="#fff"/>
  </g>
</svg>
