<svg xmlns="http://www.w3.org/2000/svg" width="37.25" height="52.813" viewBox="0 0 37.25 52.813">
  <g id="Group_2667" data-name="Group 2667" transform="translate(-58.41 -50.629)">
    <path id="Path_2753" data-name="Path 2753" d="M58.41,51.34v10C65,64.8,70,64.51,73.35,63.58c5.71-1.59,8.8-5.66,14.41-4.85a14.74,14.74,0,0,1,7.9,4.33V52.7a19.54,19.54,0,0,0-8.94-2.07c-7.56.17-10.78,5.12-17.55,5C66.68,55.65,63,54.93,58.41,51.34Z" fill="#6d7eb4"/>
    <path id="Path_2754" data-name="Path 2754" d="M58.41,71V81C65,84.42,70,84.13,73.35,83.2c5.71-1.59,8.8-5.66,14.41-4.84a14.67,14.67,0,0,1,7.9,4.33V72.33a19.41,19.41,0,0,0-8.94-2.07c-7.56.16-10.78,5.11-17.55,5C66.68,75.27,63,74.55,58.41,71Z" fill="#6d7eb4"/>
    <path id="Path_2755" data-name="Path 2755" d="M58.41,90.59v10c6.63,3.46,11.6,3.17,14.94,2.24,5.71-1.59,8.8-5.66,14.41-4.85a14.67,14.67,0,0,1,7.9,4.33V92a19.54,19.54,0,0,0-8.94-2.07c-7.56.17-10.78,5.12-17.55,5C66.68,94.9,63,94.18,58.41,90.59Z" fill="#6d7eb4"/>
  </g>
</svg>
