<svg xmlns="http://www.w3.org/2000/svg" width="7" height="9" viewBox="0 0 7 9">
  <g id="Union_4" data-name="Union 4" fill="none">
    <path d="M2.387,6.828H0L1.193,4.5,0,2.172H2.387L3.5,0,4.614,2.172H7L5.807,4.5,7,6.828H4.614L3.5,9Z" stroke="none"/>
    <path d="M 3.500181674957275 6.807956695556641 L 4.002760410308838 5.827799797058105 L 5.363904476165771 5.827799797058105 L 4.683480262756348 4.5 L 5.363904476165771 3.172199964523315 L 4.002760410308838 3.172199964523315 L 3.500181674957275 2.192043304443359 L 2.997810125350952 3.172199964523315 L 1.636385560035706 3.172199964523315 L 2.317070245742798 4.5 L 1.636385560035706 5.827799797058105 L 2.997810125350952 5.827799797058105 L 3.500181674957275 6.807956695556641 M 3.500000238418579 9 L 2.386650323867798 6.827799797058105 L 2.384185791015625e-07 6.827799797058105 L 1.19333028793335 4.5 L 2.384185791015625e-07 2.172199964523315 L 2.386650323867798 2.172199964523315 L 3.500000238418579 0 L 4.613800048828125 2.172199964523315 L 7 2.172199964523315 L 5.807130336761475 4.5 L 7 6.827799797058105 L 4.613800048828125 6.827799797058105 L 3.500000238418579 9 Z" stroke="none" fill="#fff"/>
  </g>
</svg>
