<svg xmlns="http://www.w3.org/2000/svg" width="13" height="16" viewBox="0 0 13 16">
  <g id="Union_4" data-name="Union 4" transform="translate(-0.001)" fill="#5f6998">
    <path d="M 6.5007004737854 14.94111061096191 L 4.873270511627197 11.90225028991699 L 4.73192024230957 11.6382999420166 L 4.43250036239624 11.6382999420166 L 0.8357925415039062 11.6382999420166 L 2.657490491867065 8.236120223999023 L 2.783870458602905 8.000100135803223 L 2.657490491867065 7.764080047607422 L 0.8357925415039062 4.361900329589844 L 4.43250036239624 4.361900329589844 L 4.73192024230957 4.361900329589844 L 4.873270511627197 4.097949981689453 L 6.5007004737854 1.059089303016663 L 8.128130912780762 4.097949981689453 L 8.26948070526123 4.361900329589844 L 8.568900108337402 4.361900329589844 L 12.16560840606689 4.361900329589844 L 10.34391021728516 7.764080047607422 L 10.21753025054932 8.000100135803223 L 10.34391021728516 8.236120223999023 L 12.16560840606689 11.6382999420166 L 8.568900108337402 11.6382999420166 L 8.26948070526123 11.6382999420166 L 8.128130912780762 11.90225028991699 L 6.5007004737854 14.94111061096191 Z" stroke="none"/>
    <path d="M 6.5007004737854 13.8820219039917 L 7.970070362091064 11.1382999420166 L 11.33071613311768 11.1382999420166 L 9.650370597839355 8.000100135803223 L 11.33071613311768 4.861900329589844 L 7.970070362091064 4.861900329589844 L 6.5007004737854 2.118178606033325 L 5.031330585479736 4.861900329589844 L 1.670684576034546 4.861900329589844 L 3.351030588150024 8.000100135803223 L 1.670684576034546 11.1382999420166 L 5.031330585479736 11.1382999420166 L 6.5007004737854 13.8820219039917 M 6.5007004737854 16.00020027160645 L 4.43250036239624 12.1382999420166 L 0.0009004737948998809 12.1382999420166 L 2.216700553894043 8.000100135803223 L 0.0009004737948998809 3.861900091171265 L 4.43250036239624 3.861900091171265 L 6.5007004737854 1.358032193365943e-07 L 8.568900108337402 3.861900091171265 L 13.00050067901611 3.861900091171265 L 10.78470039367676 8.000100135803223 L 13.00050067901611 12.1382999420166 L 8.568900108337402 12.1382999420166 L 6.5007004737854 16.00020027160645 Z" stroke="none" fill="#fff"/>
  </g>
</svg>
