<svg xmlns="http://www.w3.org/2000/svg" width="244.332" height="26.175" viewBox="0 0 244.332 26.175">
  <g id="Group_2646" data-name="Group 2646" transform="translate(45.128 -177.691)">
    <path id="Path_2735" data-name="Path 2735" d="M198.236,71.14l-.666-.778,3.346-4.008.89,1.109a6.473,6.473,0,0,0,2.582,2.032,7.4,7.4,0,0,0,3.015.666,4.907,4.907,0,0,0,2.8-.666,2.158,2.158,0,0,0,.9-1.785,1.752,1.752,0,0,0-.9-1.678,14.526,14.526,0,0,0-3.23-1.557c-.112,0-.224-.112-.336-.112a18.553,18.553,0,0,1-5.126-2.559,7.093,7.093,0,0,1-1.9-2.237,6.24,6.24,0,0,1-.783-3.23,6.888,6.888,0,0,1,2.456-5.238,9.1,9.1,0,0,1,5.914-2.12,13.364,13.364,0,0,1,8.142,3.011l.778.778L213,56.786l-.89-.666a8.441,8.441,0,0,0-4.907-2.125c-1.449,0-3.015.559-3.127,2.237a1.743,1.743,0,0,0,1.007,1.557,21.02,21.02,0,0,0,3.328,1.533,1.571,1.571,0,0,0,.666.224,20.2,20.2,0,0,1,4.912,2.568,6.24,6.24,0,0,1,2.451,5.243,8.762,8.762,0,0,1-.778,3.449,8.659,8.659,0,0,1-2.125,2.456,10.253,10.253,0,0,1-6.128,1.892,12.583,12.583,0,0,1-9.167-4.013Z" transform="translate(-242.698 128.712)" fill="#ededed"/>
    <path id="Path_2736" data-name="Path 2736" d="M250.588,54.419H243.56V49.4h19.294v5.019h-7.14V75.158h-5.126Z" transform="translate(-267.255 128.488)" fill="#ededed"/>
    <path id="Path_2737" data-name="Path 2737" d="M297.938,49.4h-4.46L283.77,75.158h5.462l6.473-17.835,6.581,17.835h5.467Z" transform="translate(-288.726 128.488)" fill="#ededed"/>
    <path id="Path_2738" data-name="Path 2738" d="M304.777,97.387,300.76,91.03H308.9Z" transform="translate(-297.798 106.259)" fill="#ededed"/>
    <path id="Path_2739" data-name="Path 2739" d="M343.12,49.4v5.019h16.847V49.4Zm0,25.758h5.126V65.231h11.712v-4.9H343.12Z" transform="translate(-320.416 128.488)" fill="#ededed"/>
    <path id="Path_2740" data-name="Path 2740" d="M389.8,49.4v5.019h16.959V49.4Zm0,25.758h5.248V65.231h11.712v-4.9H389.8Z" transform="translate(-345.341 128.488)" fill="#ededed"/>
    <path id="Path_2741" data-name="Path 2741" d="M449.215,69.472a2.447,2.447,0,0,0,.895-2,2.68,2.68,0,0,0-1-2.237,5.5,5.5,0,0,0-3.351-.89h-3.9v5.909H446.2A4.855,4.855,0,0,0,449.215,69.472ZM448.1,58.879a2.447,2.447,0,0,0,.89-2c0-1.23-.555-1.678-.778-1.79a4.769,4.769,0,0,0-3.015-.778h-3.337v5.238h3.682a4.12,4.12,0,0,0,2.559-.666ZM436.72,49.4h8.818a10.887,10.887,0,0,1,6.128,1.561,6.1,6.1,0,0,1,1.9,2.232,7.159,7.159,0,0,1,.666,3.127A6.329,6.329,0,0,1,453.12,60.1,4.66,4.66,0,0,1,452,61.447a7.229,7.229,0,0,1,1.678,1.449,7.07,7.07,0,0,1,1.78,4.8,7.312,7.312,0,0,1-2.33,5.462q-2.33,2-6.692,2H436.72Z" transform="translate(-370.395 128.488)" fill="#ededed"/>
    <path id="Path_2742" data-name="Path 2742" d="M507.8,75.156h-6.361l-6.124-8.813V61.329h1a4.95,4.95,0,0,0,3.463-1,3.785,3.785,0,0,0,0-5.131,4.662,4.662,0,0,0-3.015-.778h-3.905V75.156H487.73V49.4H497.1a10.542,10.542,0,0,1,3.9.671,7.386,7.386,0,0,1,5.024,7.806,8.087,8.087,0,0,1-1.785,5.462,7.2,7.2,0,0,1-3.351,2.116Z" transform="translate(-397.632 128.49)" fill="#ededed"/>
    <path id="Path_2743" data-name="Path 2743" d="M632.76,71.365l11.488-16.945H633.091l3.57-5.019h14.615v3.794l-11.6,17.057h12.047l-3.57,4.907H632.76Z" transform="translate(-475.072 128.488)" fill="#ededed"/>
    <path id="Path_2744" data-name="Path 2744" d="M585.78,50.96v4.66a9.22,9.22,0,0,0,6.963,1.044c2.666-.741,4.106-2.638,6.716-2.26a6.865,6.865,0,0,1,3.668,2.018V51.594a9.111,9.111,0,0,0-4.171-.965c-3.519.079-5.024,2.386-8.174,2.33A7.951,7.951,0,0,1,585.78,50.96Z" transform="translate(-449.986 127.831)" fill="#ededed"/>
    <path id="Path_2745" data-name="Path 2745" d="M585.78,70.6v4.66a9.235,9.235,0,0,0,6.963,1.039c2.666-.741,4.106-2.638,6.716-2.256a6.837,6.837,0,0,1,3.668,2V71.224a9.051,9.051,0,0,0-4.171-.965c-3.519.075-5.024,2.381-8.174,2.33A8.054,8.054,0,0,1,585.78,70.6Z" transform="translate(-449.986 117.35)" fill="#ededed"/>
    <path id="Path_2746" data-name="Path 2746" d="M585.78,90.237V94.9a9.22,9.22,0,0,0,6.963,1.044c2.666-.741,4.106-2.638,6.716-2.26a6.837,6.837,0,0,1,3.686,2.018v-4.8a9.111,9.111,0,0,0-4.171-.965c-3.519.079-5.024,2.386-8.174,2.33A8.16,8.16,0,0,1,585.78,90.237Z" transform="translate(-449.986 106.847)" fill="#ededed"/>
    <path id="Path_2747" data-name="Path 2747" d="M684.59,50.96v4.66a9.216,9.216,0,0,0,6.963,1.044c2.661-.741,4.1-2.638,6.716-2.26a6.869,6.869,0,0,1,3.682,2.018V51.594a9.106,9.106,0,0,0-4.166-.965c-3.523.079-5.024,2.386-8.179,2.33A7.937,7.937,0,0,1,684.59,50.96Z" transform="translate(-502.747 127.831)" fill="#ededed"/>
    <path id="Path_2748" data-name="Path 2748" d="M684.59,70.6v4.66a9.232,9.232,0,0,0,6.963,1.039c2.661-.741,4.1-2.638,6.716-2.256a6.837,6.837,0,0,1,3.682,2.018V71.224a9.046,9.046,0,0,0-4.166-.965c-3.523.075-5.024,2.381-8.179,2.33A8.04,8.04,0,0,1,684.59,70.6Z" transform="translate(-502.747 117.35)" fill="#ededed"/>
    <path id="Path_2749" data-name="Path 2749" d="M684.59,90.237V94.9a9.216,9.216,0,0,0,6.963,1.044c2.661-.741,4.1-2.638,6.716-2.26A6.837,6.837,0,0,1,701.95,95.7v-4.8a9.106,9.106,0,0,0-4.166-.965c-3.523.079-5.024,2.386-8.179,2.33A8.14,8.14,0,0,1,684.59,90.237Z" transform="translate(-502.747 106.847)" fill="#ededed"/>
    <path id="Path_2750" data-name="Path 2750" d="M537.53,50.96v4.66a9.22,9.22,0,0,0,6.963,1.044c2.661-.741,4.1-2.638,6.716-2.26a6.869,6.869,0,0,1,3.682,2.018V51.594a9.088,9.088,0,0,0-4.166-.965c-3.519.079-5.024,2.386-8.179,2.33A7.946,7.946,0,0,1,537.53,50.96Z" transform="translate(-424.223 127.831)" fill="#ededed"/>
    <path id="Path_2751" data-name="Path 2751" d="M537.53,70.6v4.66a9.235,9.235,0,0,0,6.963,1.039c2.661-.741,4.1-2.638,6.716-2.256a6.837,6.837,0,0,1,3.682,2.018V71.224a9.032,9.032,0,0,0-4.166-.965c-3.519.075-5.024,2.381-8.179,2.33A8.049,8.049,0,0,1,537.53,70.6Z" transform="translate(-424.223 117.35)" fill="#ededed"/>
    <path id="Path_2752" data-name="Path 2752" d="M537.53,90.237V94.9a9.22,9.22,0,0,0,6.963,1.044c2.661-.741,4.1-2.638,6.716-2.26A6.837,6.837,0,0,1,554.89,95.7v-4.8a9.088,9.088,0,0,0-4.166-.965c-3.519.079-5.024,2.386-8.179,2.33A8.15,8.15,0,0,1,537.53,90.237Z" transform="translate(-424.223 106.847)" fill="#ededed"/>
  </g>
</svg>
